<svg id="visual" viewBox="0 0 900 600" width="900" height="600" xmlns="http://www.w3.org/2000/svg" xmlns:xlink="http://www.w3.org/1999/xlink" version="1.1"><g stroke-width="1" stroke-linejoin="bevel"><path d="M470 312L430 376L538.5 410Z" fill="#747474" stroke="#747474"></path><path d="M538.5 410L553.5 289L470 312Z" fill="#626262" stroke="#626262"></path><path d="M459 504L542.5 485L538.5 410Z" fill="#6b6b6b" stroke="#6b6b6b"></path><path d="M538.5 410L679 377L553.5 289Z" fill="#747474" stroke="#747474"></path><path d="M430 376L459 504L538.5 410Z" fill="#b5b5b5" stroke="#b5b5b5"></path><path d="M336.5 287L320.5 385L430 376Z" fill="#bfbfbf" stroke="#bfbfbf"></path><path d="M430 376L359.5 514L459 504Z" fill="#a2a2a2" stroke="#a2a2a2"></path><path d="M434 184L336.5 287L470 312Z" fill="#747474" stroke="#747474"></path><path d="M470 312L336.5 287L430 376Z" fill="#6b6b6b" stroke="#6b6b6b"></path><path d="M652 205L563.5 198L553.5 289Z" fill="#7d7d7d" stroke="#7d7d7d"></path><path d="M553.5 289L563.5 198L470 312Z" fill="#7d7d7d" stroke="#7d7d7d"></path><path d="M542.5 485L679 377L538.5 410Z" fill="#7d7d7d" stroke="#7d7d7d"></path><path d="M563.5 198L434 184L470 312Z" fill="#ababab" stroke="#ababab"></path><path d="M320.5 385L359.5 514L430 376Z" fill="#7d7d7d" stroke="#7d7d7d"></path><path d="M679 377L672 277L553.5 289Z" fill="#bfbfbf" stroke="#bfbfbf"></path><path d="M434 184L357.5 190L336.5 287Z" fill="#bfbfbf" stroke="#bfbfbf"></path><path d="M672 277L652 205L553.5 289Z" fill="#bfbfbf" stroke="#bfbfbf"></path><path d="M563.5 198L439 96L434 184Z" fill="#bfbfbf" stroke="#bfbfbf"></path><path d="M359.5 514L441 600L459 504Z" fill="#626262" stroke="#626262"></path><path d="M459 504L584.5 600L542.5 485Z" fill="#626262" stroke="#626262"></path><path d="M542.5 485L685 505L679 377Z" fill="#626262" stroke="#626262"></path><path d="M584.5 600L685 505L542.5 485Z" fill="#868686" stroke="#868686"></path><path d="M441 600L584.5 600L459 504Z" fill="#b5b5b5" stroke="#b5b5b5"></path><path d="M206 223L245 308L336.5 287Z" fill="#ababab" stroke="#ababab"></path><path d="M336.5 287L245 308L320.5 385Z" fill="#626262" stroke="#626262"></path><path d="M232 600L344.5 600L359.5 514Z" fill="#7d7d7d" stroke="#7d7d7d"></path><path d="M359.5 514L344.5 600L441 600Z" fill="#b5b5b5" stroke="#b5b5b5"></path><path d="M225 489L359.5 514L320.5 385Z" fill="#6b6b6b" stroke="#6b6b6b"></path><path d="M652 205L580.5 108L563.5 198Z" fill="#7d7d7d" stroke="#7d7d7d"></path><path d="M434 184L355.5 104L357.5 190Z" fill="#8f8f8f" stroke="#8f8f8f"></path><path d="M580.5 108L439 96L563.5 198Z" fill="#747474" stroke="#747474"></path><path d="M357.5 190L206 223L336.5 287Z" fill="#989898" stroke="#989898"></path><path d="M245 308L200 377L320.5 385Z" fill="#868686" stroke="#868686"></path><path d="M200 377L225 489L320.5 385Z" fill="#b5b5b5" stroke="#b5b5b5"></path><path d="M439 96L355.5 104L434 184Z" fill="#989898" stroke="#989898"></path><path d="M245 308L105.5 316L200 377Z" fill="#8f8f8f" stroke="#8f8f8f"></path><path d="M584.5 600L687 600L685 505Z" fill="#626262" stroke="#626262"></path><path d="M777.5 503L679 377L685 505Z" fill="#989898" stroke="#989898"></path><path d="M777.5 503L797.5 377L679 377Z" fill="#7d7d7d" stroke="#7d7d7d"></path><path d="M679 377L791.5 283L672 277Z" fill="#6b6b6b" stroke="#6b6b6b"></path><path d="M672 277L777.5 191L652 205Z" fill="#8f8f8f" stroke="#8f8f8f"></path><path d="M652 205L664 87L580.5 108Z" fill="#ababab" stroke="#ababab"></path><path d="M797.5 377L791.5 283L679 377Z" fill="#b5b5b5" stroke="#b5b5b5"></path><path d="M687 600L777.5 503L685 505Z" fill="#6b6b6b" stroke="#6b6b6b"></path><path d="M203 104L206 223L357.5 190Z" fill="#7d7d7d" stroke="#7d7d7d"></path><path d="M777.5 191L664 87L652 205Z" fill="#6b6b6b" stroke="#6b6b6b"></path><path d="M566.5 0L444 0L439 96Z" fill="#868686" stroke="#868686"></path><path d="M791.5 283L777.5 191L672 277Z" fill="#bfbfbf" stroke="#bfbfbf"></path><path d="M128.5 481L232 600L225 489Z" fill="#747474" stroke="#747474"></path><path d="M225 489L232 600L359.5 514Z" fill="#a2a2a2" stroke="#a2a2a2"></path><path d="M439 96L351.5 0L355.5 104Z" fill="#7d7d7d" stroke="#7d7d7d"></path><path d="M355.5 104L203 104L357.5 190Z" fill="#6b6b6b" stroke="#6b6b6b"></path><path d="M566.5 0L439 96L580.5 108Z" fill="#b5b5b5" stroke="#b5b5b5"></path><path d="M664 87L566.5 0L580.5 108Z" fill="#989898" stroke="#989898"></path><path d="M106.5 419L128.5 481L200 377Z" fill="#626262" stroke="#626262"></path><path d="M200 377L128.5 481L225 489Z" fill="#989898" stroke="#989898"></path><path d="M687 600L798.5 600L777.5 503Z" fill="#ababab" stroke="#ababab"></path><path d="M900 501L900 386L797.5 377Z" fill="#7d7d7d" stroke="#7d7d7d"></path><path d="M105.5 316L106.5 419L200 377Z" fill="#747474" stroke="#747474"></path><path d="M113.5 175L105.5 316L206 223Z" fill="#7d7d7d" stroke="#7d7d7d"></path><path d="M206 223L105.5 316L245 308Z" fill="#989898" stroke="#989898"></path><path d="M221 0L203 104L355.5 104Z" fill="#868686" stroke="#868686"></path><path d="M444 0L351.5 0L439 96Z" fill="#a2a2a2" stroke="#a2a2a2"></path><path d="M773.5 0L656 0L664 87Z" fill="#989898" stroke="#989898"></path><path d="M664 87L656 0L566.5 0Z" fill="#868686" stroke="#868686"></path><path d="M900 501L797.5 377L777.5 503Z" fill="#8f8f8f" stroke="#8f8f8f"></path><path d="M797.5 377L900 301L791.5 283Z" fill="#7d7d7d" stroke="#7d7d7d"></path><path d="M791.5 283L900 218L777.5 191Z" fill="#626262" stroke="#626262"></path><path d="M900 386L900 301L797.5 377Z" fill="#6b6b6b" stroke="#6b6b6b"></path><path d="M777.5 191L788.5 79L664 87Z" fill="#bfbfbf" stroke="#bfbfbf"></path><path d="M900 107L788.5 79L777.5 191Z" fill="#626262" stroke="#626262"></path><path d="M203 104L113.5 175L206 223Z" fill="#7d7d7d" stroke="#7d7d7d"></path><path d="M798.5 600L900 501L777.5 503Z" fill="#bfbfbf" stroke="#bfbfbf"></path><path d="M900 301L900 218L791.5 283Z" fill="#6b6b6b" stroke="#6b6b6b"></path><path d="M0 513L128.5 481L106.5 419Z" fill="#7d7d7d" stroke="#7d7d7d"></path><path d="M0 513L105.5 600L128.5 481Z" fill="#ababab" stroke="#ababab"></path><path d="M128.5 481L105.5 600L232 600Z" fill="#626262" stroke="#626262"></path><path d="M351.5 0L221 0L355.5 104Z" fill="#8f8f8f" stroke="#8f8f8f"></path><path d="M203 104L105.5 104L113.5 175Z" fill="#6b6b6b" stroke="#6b6b6b"></path><path d="M788.5 79L773.5 0L664 87Z" fill="#747474" stroke="#747474"></path><path d="M900 0L773.5 0L788.5 79Z" fill="#a2a2a2" stroke="#a2a2a2"></path><path d="M0 291L0 382L105.5 316Z" fill="#bfbfbf" stroke="#bfbfbf"></path><path d="M122.5 0L105.5 104L203 104Z" fill="#ababab" stroke="#ababab"></path><path d="M798.5 600L900 600L900 501Z" fill="#a2a2a2" stroke="#a2a2a2"></path><path d="M900 218L900 107L777.5 191Z" fill="#bfbfbf" stroke="#bfbfbf"></path><path d="M105.5 316L0 382L106.5 419Z" fill="#989898" stroke="#989898"></path><path d="M0 291L105.5 316L0 200Z" fill="#bfbfbf" stroke="#bfbfbf"></path><path d="M0 200L105.5 316L113.5 175Z" fill="#8f8f8f" stroke="#8f8f8f"></path><path d="M0 382L0 513L106.5 419Z" fill="#6b6b6b" stroke="#6b6b6b"></path><path d="M0 122L0 200L113.5 175Z" fill="#626262" stroke="#626262"></path><path d="M221 0L122.5 0L203 104Z" fill="#747474" stroke="#747474"></path><path d="M105.5 104L0 122L113.5 175Z" fill="#6b6b6b" stroke="#6b6b6b"></path><path d="M0 513L0 600L105.5 600Z" fill="#ababab" stroke="#ababab"></path><path d="M0 0L0 122L105.5 104Z" fill="#8f8f8f" stroke="#8f8f8f"></path><path d="M900 107L900 0L788.5 79Z" fill="#626262" stroke="#626262"></path><path d="M122.5 0L0 0L105.5 104Z" fill="#6b6b6b" stroke="#6b6b6b"></path></g></svg>