<svg id="visual" viewBox="0 0 960 540" width="960" height="540" xmlns="http://www.w3.org/2000/svg" xmlns:xlink="http://www.w3.org/1999/xlink" version="1.1"><g stroke-width="1" stroke-linejoin="bevel"><path d="M475.3 275L444.7 247L402.7 354Z" fill="#113865" stroke="#113865"></path><path d="M444.7 247L345 325L402.7 354Z" fill="#134074" stroke="#134074"></path><path d="M366 476L458.7 405L402.7 354Z" fill="#0d2a4e" stroke="#0d2a4e"></path><path d="M402.7 354L458.7 405L475.3 275Z" fill="#0c284a" stroke="#0c284a"></path><path d="M310 171L268.3 266L345 325Z" fill="#103561" stroke="#103561"></path><path d="M268.3 266L294 400L345 325Z" fill="#0d2d53" stroke="#0d2d53"></path><path d="M345 325L294 400L402.7 354Z" fill="#123d6f" stroke="#123d6f"></path><path d="M634 238L500.3 151L475.3 275Z" fill="#0f325c" stroke="#0f325c"></path><path d="M475.3 275L500.3 151L444.7 247Z" fill="#0d2a4e" stroke="#0d2a4e"></path><path d="M444.7 247L310 171L345 325Z" fill="#0e2f57" stroke="#0e2f57"></path><path d="M458.7 405L564.3 397L475.3 275Z" fill="#0f325c" stroke="#0f325c"></path><path d="M372.7 130L310 171L444.7 247Z" fill="#103561" stroke="#103561"></path><path d="M500.3 151L372.7 130L444.7 247Z" fill="#0d2d53" stroke="#0d2d53"></path><path d="M294 400L366 476L402.7 354Z" fill="#113865" stroke="#113865"></path><path d="M458.7 405L555.3 507L564.3 397Z" fill="#0d2d53" stroke="#0d2d53"></path><path d="M310 171L246.3 225L268.3 266Z" fill="#103561" stroke="#103561"></path><path d="M180.3 394L258.3 454L294 400Z" fill="#103561" stroke="#103561"></path><path d="M564.3 397L638 312L475.3 275Z" fill="#113a6a" stroke="#113a6a"></path><path d="M638 312L634 238L475.3 275Z" fill="#0c284a" stroke="#0c284a"></path><path d="M294 400L258.3 454L366 476Z" fill="#134074" stroke="#134074"></path><path d="M180.3 394L294 400L268.3 266Z" fill="#0f325c" stroke="#0f325c"></path><path d="M577.3 54L446.7 60L500.3 151Z" fill="#0d2a4e" stroke="#0d2a4e"></path><path d="M500.3 151L446.7 60L372.7 130Z" fill="#103561" stroke="#103561"></path><path d="M270 46L234.3 146L310 171Z" fill="#0d2d53" stroke="#0d2d53"></path><path d="M369 540L460.7 540L366 476Z" fill="#134074" stroke="#134074"></path><path d="M366 476L460.7 540L458.7 405Z" fill="#0f325c" stroke="#0f325c"></path><path d="M672 492L717.7 318L638 312Z" fill="#0b2545" stroke="#0b2545"></path><path d="M270 46L310 171L372.7 130Z" fill="#0b2545" stroke="#0b2545"></path><path d="M310 171L234.3 146L246.3 225Z" fill="#123d6f" stroke="#123d6f"></path><path d="M246.3 225L180.3 394L268.3 266Z" fill="#113a6a" stroke="#113a6a"></path><path d="M460.7 540L555.3 507L458.7 405Z" fill="#0b2545" stroke="#0b2545"></path><path d="M267.3 540L369 540L366 476Z" fill="#103561" stroke="#103561"></path><path d="M70.7 264L180.3 394L246.3 225Z" fill="#0b2545" stroke="#0b2545"></path><path d="M258.3 454L267.3 540L366 476Z" fill="#123d6f" stroke="#123d6f"></path><path d="M460.7 540L568.3 540L555.3 507Z" fill="#134074" stroke="#134074"></path><path d="M672 492L638 312L564.3 397Z" fill="#103561" stroke="#103561"></path><path d="M101.7 433L267.3 540L258.3 454Z" fill="#0d2d53" stroke="#0d2d53"></path><path d="M665 125L577.3 54L500.3 151Z" fill="#113865" stroke="#113865"></path><path d="M672 492L564.3 397L555.3 507Z" fill="#0d2a4e" stroke="#0d2a4e"></path><path d="M638 312L717.7 318L634 238Z" fill="#0e2f57" stroke="#0e2f57"></path><path d="M634 238L665 125L500.3 151Z" fill="#0c284a" stroke="#0c284a"></path><path d="M437.7 0L270 46L372.7 130Z" fill="#103561" stroke="#103561"></path><path d="M437.7 0L372.7 130L446.7 60Z" fill="#0e2f57" stroke="#0e2f57"></path><path d="M198.3 0L158.7 165L234.3 146Z" fill="#0b2545" stroke="#0b2545"></path><path d="M234.3 146L158.7 165L246.3 225Z" fill="#123d6f" stroke="#123d6f"></path><path d="M776.7 194L665 125L634 238Z" fill="#113865" stroke="#113865"></path><path d="M555.3 0L437.7 0L446.7 60Z" fill="#123d6f" stroke="#123d6f"></path><path d="M568.3 540L672 492L555.3 507Z" fill="#113865" stroke="#113865"></path><path d="M70.7 264L121.7 402L180.3 394Z" fill="#113865" stroke="#113865"></path><path d="M180.3 394L101.7 433L258.3 454Z" fill="#113865" stroke="#113865"></path><path d="M577.3 54L555.3 0L446.7 60Z" fill="#113a6a" stroke="#113a6a"></path><path d="M615 0L555.3 0L577.3 54Z" fill="#134074" stroke="#134074"></path><path d="M437.7 0L267 0L270 46Z" fill="#0e2f57" stroke="#0e2f57"></path><path d="M270 46L198.3 0L234.3 146Z" fill="#103561" stroke="#103561"></path><path d="M0 387L101.7 433L121.7 402Z" fill="#0b2545" stroke="#0b2545"></path><path d="M121.7 402L101.7 433L180.3 394Z" fill="#123d6f" stroke="#123d6f"></path><path d="M0 162L70.7 264L158.7 165Z" fill="#0c284a" stroke="#0c284a"></path><path d="M158.7 165L70.7 264L246.3 225Z" fill="#0d2d53" stroke="#0d2d53"></path><path d="M677 31L615 0L577.3 54Z" fill="#103561" stroke="#103561"></path><path d="M568.3 540L697 540L672 492Z" fill="#113a6a" stroke="#113a6a"></path><path d="M772.7 500L798.7 317L717.7 318Z" fill="#0d2a4e" stroke="#0d2a4e"></path><path d="M717.7 318L776.7 194L634 238Z" fill="#0b2545" stroke="#0b2545"></path><path d="M665 125L677 31L577.3 54Z" fill="#123d6f" stroke="#123d6f"></path><path d="M798.7 317L776.7 194L717.7 318Z" fill="#0d2a4e" stroke="#0d2a4e"></path><path d="M795.3 81L677 31L665 125Z" fill="#134074" stroke="#134074"></path><path d="M772.7 500L717.7 318L672 492Z" fill="#123d6f" stroke="#123d6f"></path><path d="M267 0L198.3 0L270 46Z" fill="#0d2a4e" stroke="#0d2a4e"></path><path d="M887.3 254L796.3 172L776.7 194Z" fill="#123d6f" stroke="#123d6f"></path><path d="M776.7 194L798.7 143L665 125Z" fill="#0d2d53" stroke="#0d2d53"></path><path d="M697 540L772.7 500L672 492Z" fill="#123d6f" stroke="#123d6f"></path><path d="M960 145L798.7 143L796.3 172Z" fill="#134074" stroke="#134074"></path><path d="M796.3 172L798.7 143L776.7 194Z" fill="#123d6f" stroke="#123d6f"></path><path d="M198.3 0L146.7 0L158.7 165Z" fill="#0c284a" stroke="#0c284a"></path><path d="M697 540L755.7 540L772.7 500Z" fill="#0d2d53" stroke="#0d2d53"></path><path d="M146.7 0L74.7 86L158.7 165Z" fill="#0d2a4e" stroke="#0d2a4e"></path><path d="M795.3 81L710.7 0L677 31Z" fill="#113a6a" stroke="#113a6a"></path><path d="M677 31L710.7 0L615 0Z" fill="#0d2a4e" stroke="#0d2a4e"></path><path d="M0 162L0 299L70.7 264Z" fill="#0d2a4e" stroke="#0d2a4e"></path><path d="M70.7 264L0 387L121.7 402Z" fill="#123d6f" stroke="#123d6f"></path><path d="M798.7 143L795.3 81L665 125Z" fill="#113865" stroke="#113865"></path><path d="M0 402L64.7 540L101.7 433Z" fill="#113865" stroke="#113865"></path><path d="M101.7 433L64.7 540L267.3 540Z" fill="#103561" stroke="#103561"></path><path d="M0 299L0 387L70.7 264Z" fill="#0e2f57" stroke="#0e2f57"></path><path d="M0 387L0 402L101.7 433Z" fill="#123d6f" stroke="#123d6f"></path><path d="M861.3 540L835.3 472L772.7 500Z" fill="#113a6a" stroke="#113a6a"></path><path d="M772.7 500L835.3 472L798.7 317Z" fill="#123d6f" stroke="#123d6f"></path><path d="M798.7 317L887.3 254L776.7 194Z" fill="#0d2a4e" stroke="#0d2a4e"></path><path d="M960 137L883.3 0L795.3 81Z" fill="#0d2a4e" stroke="#0d2a4e"></path><path d="M74.7 86L0 162L158.7 165Z" fill="#113865" stroke="#113865"></path><path d="M0 132L0 162L74.7 86Z" fill="#123d6f" stroke="#123d6f"></path><path d="M0 0L0 132L74.7 86Z" fill="#0b2545" stroke="#0b2545"></path><path d="M835.3 472L867.3 416L798.7 317Z" fill="#0d2a4e" stroke="#0d2a4e"></path><path d="M867.3 416L887.3 254L798.7 317Z" fill="#0e2f57" stroke="#0e2f57"></path><path d="M0 402L0 540L64.7 540Z" fill="#123d6f" stroke="#123d6f"></path><path d="M755.7 540L861.3 540L772.7 500Z" fill="#0f325c" stroke="#0f325c"></path><path d="M835.3 472L960 540L867.3 416Z" fill="#0d2a4e" stroke="#0d2a4e"></path><path d="M960 314L960 311L887.3 254Z" fill="#0d2d53" stroke="#0d2d53"></path><path d="M146.7 0L0 0L74.7 86Z" fill="#103561" stroke="#103561"></path><path d="M960 314L887.3 254L867.3 416Z" fill="#103561" stroke="#103561"></path><path d="M960 137L795.3 81L798.7 143Z" fill="#0b2545" stroke="#0b2545"></path><path d="M960 400L960 314L867.3 416Z" fill="#134074" stroke="#134074"></path><path d="M960 540L960 400L867.3 416Z" fill="#0f325c" stroke="#0f325c"></path><path d="M960 145L796.3 172L887.3 254Z" fill="#113a6a" stroke="#113a6a"></path><path d="M795.3 81L883.3 0L710.7 0Z" fill="#103561" stroke="#103561"></path><path d="M960 311L960 145L887.3 254Z" fill="#113865" stroke="#113865"></path><path d="M960 145L960 137L798.7 143Z" fill="#103561" stroke="#103561"></path><path d="M861.3 540L960 540L835.3 472Z" fill="#0b2545" stroke="#0b2545"></path><path d="M960 137L960 0L883.3 0Z" fill="#0b2545" stroke="#0b2545"></path></g></svg>